<?xml version="1.0" encoding="UTF-8"?>
<svg width="512" height="512" viewBox="0 0 512 512" xmlns="http://www.w3.org/2000/svg">
  <!-- Background with gradient -->
  <defs>
    <linearGradient id="bgGradient" x1="0%" y1="0%" x2="100%" y2="100%">
      <stop offset="0%" style="stop-color:#6200EA;stop-opacity:1" />
      <stop offset="50%" style="stop-color:#3F51B5;stop-opacity:1" />
      <stop offset="100%" style="stop-color:#2196F3;stop-opacity:1" />
    </linearGradient>
    <linearGradient id="chartGradient" x1="0%" y1="0%" x2="100%" y2="100%">
      <stop offset="0%" style="stop-color:#03DAC6;stop-opacity:1" />
      <stop offset="100%" style="stop-color:#00BCD4;stop-opacity:1" />
    </linearGradient>
    <linearGradient id="tagGradient" x1="0%" y1="0%" x2="100%" y2="100%">
      <stop offset="0%" style="stop-color:#FF6B35;stop-opacity:1" />
      <stop offset="100%" style="stop-color:#FF5722;stop-opacity:1" />
    </linearGradient>
    <!-- Shadow filter -->
    <filter id="shadow" x="-50%" y="-50%" width="200%" height="200%">
      <feDropShadow dx="2" dy="4" stdDeviation="8" flood-color="#000000" flood-opacity="0.3"/>
    </filter>
  </defs>
  
  <!-- Background circle -->
  <circle cx="256" cy="256" r="240" fill="url(#bgGradient)" filter="url(#shadow)"/>
  
  <!-- Price tag shape (main element) -->
  <path d="M 150 180 L 280 180 L 320 220 L 280 260 L 150 260 C 130 260 130 180 150 180 Z" 
        fill="url(#tagGradient)" 
        stroke="#FFFFFF" 
        stroke-width="4" 
        filter="url(#shadow)"/>
  
  <!-- Tag hole -->
  <circle cx="180" cy="220" r="12" fill="#FFFFFF"/>
  
  <!-- Price chart/graph -->
  <g transform="translate(160, 290)">
    <!-- Chart background -->
    <rect x="0" y="0" width="192" height="120" rx="12" fill="#FFFFFF" opacity="0.9" filter="url(#shadow)"/>
    
    <!-- Chart bars -->
    <rect x="20" y="70" width="16" height="30" rx="2" fill="url(#chartGradient)"/>
    <rect x="45" y="50" width="16" height="50" rx="2" fill="url(#chartGradient)"/>
    <rect x="70" y="40" width="16" height="60" rx="2" fill="url(#chartGradient)"/>
    <rect x="95" y="25" width="16" height="75" rx="2" fill="url(#chartGradient)"/>
    <rect x="120" y="35" width="16" height="65" rx="2" fill="url(#chartGradient)"/>
    <rect x="145" y="55" width="16" height="45" rx="2" fill="url(#chartGradient)"/>
    
    <!-- Trend line -->
    <polyline points="28,85 53,65 78,55 103,40 128,50 153,70" 
              fill="none" 
              stroke="#FF6B35" 
              stroke-width="3" 
              stroke-linecap="round"/>
    
    <!-- Data points -->
    <circle cx="28" cy="85" r="3" fill="#FF6B35"/>
    <circle cx="53" cy="65" r="3" fill="#FF6B35"/>
    <circle cx="78" cy="55" r="3" fill="#FF6B35"/>
    <circle cx="103" cy="40" r="3" fill="#FF6B35"/>
    <circle cx="128" cy="50" r="3" fill="#FF6B35"/>
    <circle cx="153" cy="70" r="3" fill="#FF6B35"/>
  </g>
  
  <!-- Dollar sign on tag -->
  <text x="240" y="235" font-family="Arial, sans-serif" font-size="36" font-weight="bold" fill="#FFFFFF" text-anchor="middle">$</text>
  
  <!-- Tracking symbol (magnifying glass) -->
  <g transform="translate(320, 140)">
    <circle cx="20" cy="20" r="16" fill="none" stroke="#FFFFFF" stroke-width="4"/>
    <line x1="32" y1="32" x2="42" y2="42" stroke="#FFFFFF" stroke-width="4" stroke-linecap="round"/>
  </g>
  
  <!-- Small notification dot -->
  <circle cx="380" cy="160" r="8" fill="#FF6B35" stroke="#FFFFFF" stroke-width="2"/>
</svg>
